<?xml version="1.0" encoding="UTF-8" standalone="no"?>
<!DOCTYPE svg PUBLIC "-//W3C//DTD SVG 1.1//EN" "http://www.w3.org/Graphics/SVG/1.1/DTD/svg11.dtd">
<!-- Created with Vectornator (http://vectornator.io/) -->
<svg height="100%" stroke-miterlimit="10" style="fill-rule:nonzero;clip-rule:evenodd;stroke-linecap:round;stroke-linejoin:round;" version="1.1" viewBox="0 0 1024 570" width="100%" xml:space="preserve" xmlns="http://www.w3.org/2000/svg" xmlns:vectornator="http://vectornator.io" xmlns:xlink="http://www.w3.org/1999/xlink">
<defs>
<clipPath id="TextBounds">
<rect height="123.657" width="121.133" x="212.85" y="60.4855"/>
</clipPath>
<clipPath id="TextBounds_2">
<rect height="123.657" width="121.133" x="369.634" y="65.9973"/>
</clipPath>
<clipPath id="TextBounds_3">
<rect height="123.657" width="121.133" x="451.745" y="217.73"/>
</clipPath>
<clipPath id="TextBounds_4">
<rect height="123.657" width="121.133" x="289.408" y="217.73"/>
</clipPath>
<clipPath id="TextBounds_5">
<rect height="123.657" width="121.133" x="527.754" y="66.6862"/>
</clipPath>
<clipPath id="TextBounds_6">
<rect height="123.657" width="121.133" x="615.4" y="217.73"/>
</clipPath>
<clipPath id="TextBounds_7">
<rect height="123.657" width="121.133" x="694.691" y="68.0642"/>
</clipPath>
</defs>
<g id="Layer-1" vectornator:layerName="Layer 1">
<path d="M210.362 51L329.638 51C335.361 51 340 55.7226 340 61.5483L340 180.452C340 186.277 335.361 191 329.638 191L210.362 191C204.639 191 200 186.277 200 180.452L200 61.5483C200 55.7226 204.639 51 210.362 51Z" fill="none" opacity="1" stroke="#000000" stroke-linecap="round" stroke-linejoin="round" stroke-width="10"/>
<path clip-path="url(#TextBounds)" d="M261.625 146.423L261.625 174.109L252.592 174.109L252.592 98.6203L261.625 98.6203L261.625 105.603C263.122 102.901 265.116 100.842 267.606 99.4259C270.097 98.0099 272.969 97.3019 276.225 97.3019C282.833 97.3019 288.017 99.8573 291.776 104.968C295.536 110.079 297.416 117.159 297.416 126.208C297.416 135.095 295.528 142.069 291.752 147.131C287.976 152.193 282.8 154.724 276.225 154.724C272.904 154.724 269.999 154.016 267.509 152.6C265.019 151.184 263.057 149.125 261.625 146.423ZM287.992 126.013C287.992 119.047 286.894 113.79 284.696 110.241C282.499 106.693 279.236 104.919 274.906 104.919C270.544 104.919 267.24 106.701 264.994 110.266C262.748 113.83 261.625 119.079 261.625 126.013C261.625 132.914 262.748 138.155 264.994 141.736C267.24 145.316 270.544 147.107 274.906 147.107C279.236 147.107 282.499 145.333 284.696 141.784C286.894 138.236 287.992 132.979 287.992 126.013Z" fill="#000000" opacity="1" stroke="none"/>
<path d="M26.8424 51L163.158 51C169.698 51 175 55.7226 175 61.5483L175 180.452C175 186.277 169.698 191 163.158 191L26.8424 191C20.302 191 15 186.277 15 180.452L15 61.5483C15 55.7226 20.302 51 26.8424 51Z" fill="none" opacity="1" stroke="#000000" stroke-linecap="round" stroke-linejoin="round" stroke-width="10"/>
<path d="M369.902 51L489.178 51C494.9 51 499.54 55.7226 499.54 61.5483L499.54 180.452C499.54 186.277 494.9 191 489.178 191L369.902 191C364.179 191 359.54 186.277 359.54 180.452L359.54 61.5483C359.54 55.7226 364.179 51 369.902 51Z" fill="none" opacity="1" stroke="#000000" stroke-linecap="round" stroke-linejoin="round" stroke-width="10"/>
<path clip-path="url(#TextBounds_2)" d="M437.989 119.806C442.774 121.075 446.436 123.33 448.975 126.569C451.514 129.807 452.784 133.852 452.784 138.702C452.784 145.408 450.53 150.673 446.021 154.498C441.513 158.323 435.271 160.236 427.296 160.236C423.943 160.236 420.525 159.926 417.042 159.308C413.559 158.689 410.141 157.794 406.788 156.622L406.788 146.808C410.108 148.533 413.38 149.819 416.602 150.665C419.825 151.512 423.031 151.935 426.221 151.935C431.625 151.935 435.775 150.714 438.673 148.273C441.57 145.831 443.018 142.316 443.018 137.726C443.018 133.494 441.57 130.133 438.673 127.643C435.775 125.153 431.853 123.907 426.905 123.907L419.385 123.907L419.385 115.802L426.905 115.802C431.43 115.802 434.962 114.809 437.501 112.823C440.04 110.838 441.309 108.071 441.309 104.523C441.309 100.779 440.129 97.9064 437.769 95.9045C435.409 93.9025 432.048 92.9016 427.686 92.9016C424.789 92.9016 421.794 93.2271 418.702 93.8781C415.609 94.5292 412.37 95.5057 408.985 96.8078L408.985 87.7258C412.924 86.6841 416.431 85.9029 419.507 85.382C422.584 84.8612 425.31 84.6008 427.686 84.6008C434.783 84.6008 440.455 86.383 444.703 89.9475C448.951 93.5119 451.075 98.2401 451.075 104.132C451.075 108.136 449.96 111.473 447.73 114.142C445.5 116.811 442.253 118.699 437.989 119.806Z" fill="#000000" opacity="1" stroke="none"/>
<path d="M452.013 211L571.289 211C577.012 211 581.651 215.723 581.651 221.548L581.651 340.452C581.651 346.277 577.012 351 571.289 351L452.013 351C446.29 351 441.651 346.277 441.651 340.452L441.651 221.548C441.651 215.723 446.29 211 452.013 211Z" fill="none" opacity="1" stroke="#000000" stroke-linecap="round" stroke-linejoin="round" stroke-width="10"/>
<path clip-path="url(#TextBounds_3)" d="M536.897 278.716L536.897 283.11L497.981 283.11L497.981 283.403C497.721 290.858 499.145 296.213 502.254 299.468C505.362 302.723 509.749 304.351 515.413 304.351C518.277 304.351 521.272 303.895 524.397 302.984C527.522 302.072 530.859 300.689 534.407 298.833L534.407 307.769C530.989 309.168 527.693 310.218 524.519 310.918C521.345 311.618 518.277 311.968 515.315 311.968C506.819 311.968 500.178 309.421 495.393 304.326C490.608 299.232 488.215 292.209 488.215 283.257C488.215 274.533 490.559 267.567 495.247 262.359C499.934 257.15 506.184 254.546 513.997 254.546C520.963 254.546 526.456 256.906 530.476 261.626C534.496 266.346 536.637 272.043 536.897 278.716ZM527.913 276.079C527.522 272.303 526.147 269.04 523.787 266.289C521.427 263.539 518.033 262.163 513.606 262.163C509.277 262.163 505.712 263.596 502.913 266.46C500.113 269.325 498.583 272.547 498.323 276.128L527.913 276.079Z" fill="#000000" opacity="1" stroke="none"/>
<path d="M303.219 371L714.408 371C734.137 371 750.13 375.723 750.13 381.548L750.13 500.452C750.13 506.277 734.137 511 714.408 511L303.219 511C283.491 511 267.497 506.277 267.497 500.452L267.497 381.548C267.497 375.723 283.491 371 303.219 371Z" fill="none" opacity="1" stroke="#000000" stroke-linecap="round" stroke-linejoin="round" stroke-width="10"/>
<path d="M289.676 211L408.952 211C414.675 211 419.314 215.723 419.314 221.548L419.314 340.452C419.314 346.277 414.675 351 408.952 351L289.676 351C283.953 351 279.314 346.277 279.314 340.452L279.314 221.548C279.314 215.723 283.953 211 289.676 211Z" fill="none" opacity="1" stroke="#000000" stroke-linecap="round" stroke-linejoin="round" stroke-width="10"/>
<path clip-path="url(#TextBounds_4)" d="M361.767 262.847L361.767 234.575L370.752 234.575L370.752 310.552L361.767 310.552L361.767 303.667C360.27 306.369 358.276 308.428 355.786 309.844C353.296 311.26 350.423 311.968 347.168 311.968C340.56 311.968 335.359 309.404 331.567 304.277C327.775 299.151 325.879 292.079 325.879 283.062C325.879 274.175 327.783 267.201 331.591 262.139C335.4 257.077 340.592 254.546 347.168 254.546C350.455 254.546 353.352 255.254 355.859 256.67C358.365 258.086 360.335 260.145 361.767 262.847ZM335.351 283.257C335.351 290.223 336.458 295.48 338.671 299.028C340.885 302.577 344.157 304.351 348.486 304.351C352.815 304.351 356.111 302.56 358.374 298.98C360.636 295.399 361.767 290.158 361.767 283.257C361.767 276.323 360.636 271.074 358.374 267.51C356.111 263.945 352.815 262.163 348.486 262.163C344.157 262.163 340.885 263.937 338.671 267.485C336.458 271.034 335.351 276.291 335.351 283.257Z" fill="#000000" opacity="1" stroke="none"/>
<path d="M33.0108 211L240.329 211C250.276 211 258.339 215.723 258.339 221.548L258.339 340.452C258.339 346.277 250.276 351 240.329 351L33.0108 351C23.0637 351 15 346.277 15 340.452L15 221.548C15 215.723 23.0637 211 33.0108 211Z" fill="none" opacity="1" stroke="#000000" stroke-linecap="round" stroke-linejoin="round" stroke-width="10"/>
<path d="M534.222 51L653.498 51C659.221 51 663.86 55.7226 663.86 61.5483L663.86 180.452C663.86 186.277 659.221 191 653.498 191L534.222 191C528.5 191 523.86 186.277 523.86 180.452L523.86 61.5483C523.86 55.7226 528.5 51 534.222 51Z" fill="none" opacity="1" stroke="#000000" stroke-linecap="round" stroke-linejoin="round" stroke-width="10"/>
<path clip-path="url(#TextBounds_5)" d="M593.326 139.733C593.326 143.77 594.066 146.813 595.547 148.864C597.028 150.915 599.218 151.94 602.115 151.94L612.613 151.94L612.613 159.508L601.236 159.508C595.865 159.508 591.706 157.791 588.76 154.357C585.814 150.923 584.341 146.048 584.341 139.733L584.341 90.2702L569.937 90.2702L569.937 83.239L593.326 83.239L593.326 139.733Z" fill="#000000" opacity="1" stroke="none"/>
<path d="M615.668 211L734.944 211C740.666 211 745.306 215.723 745.306 221.548L745.306 340.452C745.306 346.277 740.666 351 734.944 351L615.668 351C609.945 351 605.306 346.277 605.306 340.452L605.306 221.548C605.306 215.723 609.945 211 615.668 211Z" fill="none" opacity="1" stroke="#000000" stroke-linecap="round" stroke-linejoin="round" stroke-width="10"/>
<path clip-path="url(#TextBounds_6)" d="M650.747 255.864L660.073 255.864L675.942 301.763L691.86 255.864L701.187 255.864L681.753 310.552L670.181 310.552L650.747 255.864Z" fill="#000000" opacity="1" stroke="none"/>
<path d="M782.545 211L991.182 211C1001.19 211 1009.31 215.723 1009.31 221.548L1009.31 340.452C1009.31 346.277 1001.19 351 991.182 351L782.545 351C772.534 351 764.419 346.277 764.419 340.452L764.419 221.548C764.419 215.723 772.534 211 782.545 211Z" fill="none" opacity="1" stroke="#000000" stroke-linecap="round" stroke-linejoin="round" stroke-width="10"/>
<path d="M696.337 51L815.612 51C821.335 51 825.975 55.7226 825.975 61.5483L825.975 180.452C825.975 186.277 821.335 191 815.612 191L696.337 191C690.614 191 685.975 186.277 685.975 180.452L685.975 61.5483C685.975 55.7226 690.614 51 696.337 51Z" fill="none" opacity="1" stroke="#000000" stroke-linecap="round" stroke-linejoin="round" stroke-width="10"/>
<path clip-path="url(#TextBounds_7)" d="M773.544 89.5974L773.544 98.6794C771.493 97.475 769.312 96.5554 767.001 95.9206C764.69 95.2858 762.281 94.9685 759.774 94.9685C753.524 94.9685 748.788 97.3203 745.565 102.024C742.343 106.728 740.731 113.653 740.731 122.8C742.294 119.545 744.459 117.047 747.226 115.305C749.993 113.564 753.166 112.693 756.747 112.693C763.778 112.693 769.223 114.85 773.08 119.163C776.938 123.476 778.866 129.588 778.866 137.498C778.866 145.375 776.881 151.479 772.909 155.808C768.938 160.138 763.355 162.302 756.161 162.302C747.698 162.302 741.496 159.267 737.558 153.196C733.619 147.125 731.649 137.563 731.649 124.509C731.649 112.205 734.018 102.822 738.754 96.3601C743.49 89.8985 750.351 86.6677 759.335 86.6677C761.744 86.6677 764.153 86.92 766.562 87.4245C768.97 87.9291 771.298 88.6534 773.544 89.5974ZM755.966 120.408C751.767 120.408 748.463 121.922 746.054 124.949C743.645 127.976 742.44 132.159 742.44 137.498C742.44 142.836 743.645 147.019 746.054 150.047C748.463 153.074 751.767 154.588 755.966 154.588C760.328 154.588 763.616 153.147 765.829 150.266C768.043 147.385 769.149 143.129 769.149 137.498C769.149 131.834 768.043 127.569 765.829 124.705C763.616 121.84 760.328 120.408 755.966 120.408Z" fill="#000000" opacity="1" stroke="none"/>
<path d="M860.931 51L997.246 51C1003.79 51 1009.09 55.7226 1009.09 61.5483L1009.09 180.452C1009.09 186.277 1003.79 191 997.246 191L860.931 191C854.391 191 849.089 186.277 849.089 180.452L849.089 61.5483C849.089 55.7226 854.391 51 860.931 51Z" fill="none" opacity="1" stroke="#000000" stroke-linecap="round" stroke-linejoin="round" stroke-width="10"/>
</g>
</svg>
