<?xml version="1.0" encoding="UTF-8" standalone="no"?> <!-- Created with Vectornator for iOS (http://vectornator.io/) --><!DOCTYPE svg PUBLIC "-//W3C//DTD SVG 1.1//EN" "http://www.w3.org/Graphics/SVG/1.1/DTD/svg11.dtd">
<svg height="100%" style="fill-rule:evenodd;clip-rule:evenodd;stroke-linecap:round;stroke-linejoin:round;" xmlns:xlink="http://www.w3.org/1999/xlink" xmlns="http://www.w3.org/2000/svg" xml:space="preserve" width="100%" xmlns:vectornator="http://vectornator.io" version="1.1" viewBox="0 0 1024 570">
<metadata>
<vectornator:setting key="DisplayWhiteBackground" value="0"/>
<vectornator:setting key="RulersVisible" value="1"/>
<vectornator:setting key="Units" value="Pixels"/>
<vectornator:setting key="New" value="1"/>
<vectornator:setting key="DynamicGuides" value="0"/>
<vectornator:setting key="GuidesVisible" value="1"/>
<vectornator:setting key="SnapToPoints" value="0"/>
<vectornator:setting key="SnapToGrid" value="0"/>
<vectornator:setting key="SnapToGuides" value="1"/>
<vectornator:setting key="DimensionsVisible" value="1"/>
<vectornator:setting key="SnapToEdges" value="0"/>
</metadata>
<defs/>
<g id="Layer 1" vectornator:layerName="Layer 1">
<path stroke="#000000" vectornator:shadowColor="#000000" vectornator:shadowOffset="10" stroke-width="10" fill="none" stroke-linecap="round" vectornator:shadowAngle="1.5708" stroke-linejoin="round" opacity="1" vectornator:shadowRadius="10" d="M210.362+51L329.638+51C335.361+51+340+55.7226+340+61.5483L340+180.452C340+186.277+335.361+191+329.638+191L210.362+191C204.639+191+200+186.277+200+180.452L200+61.5483C200+55.7226+204.639+51+210.362+51Z" vectornator:shadowOpacity="0.333"/>
<g opacity="1">
<path vectornator:shadowColor="#000000" vectornator:shadowOpacity="0.333" vectornator:shadowRadius="10" d="M260.041+85.757L260.041+113.15L271.467+113.15C276.024+113.15+279.58+111.945+282.136+109.536C284.691+107.127+285.969+103.758+285.969+99.4289C285.969+95.0994+284.699+91.7384+282.16+89.3458C279.621+86.9533+276.057+85.757+271.467+85.757L260.041+85.757ZM250.178+77.6515L271.467+77.6515C279.605+77.6515+285.773+79.4988+289.973+83.1935C294.172+86.8882+296.271+92.2999+296.271+99.4289C296.271+106.623+294.18+112.059+289.997+115.737C285.814+119.416+279.637+121.255+271.467+121.255L260.041+121.255L260.041+150.552L250.178+150.552L250.178+77.6515Z" vectornator:shadowOffset="10" fill="#000000" opacity="1" vectornator:shadowAngle="1.5708"/>
</g>
<path stroke="#000000" vectornator:shadowColor="#000000" vectornator:shadowOffset="10" stroke-width="10" fill="none" stroke-linecap="round" vectornator:shadowAngle="1.5708" stroke-linejoin="round" opacity="1" vectornator:shadowRadius="10" d="M26.8424+51L163.158+51C169.698+51+175+55.7226+175+61.5483L175+180.452C175+186.277+169.698+191+163.158+191L26.8424+191C20.302+191+15+186.277+15+180.452L15+61.5483C15+55.7226+20.302+51+26.8424+51Z" vectornator:shadowOpacity="0.333"/>
<path stroke="#000000" vectornator:shadowColor="#000000" vectornator:shadowOffset="10" stroke-width="10" fill="none" stroke-linecap="round" vectornator:shadowAngle="1.5708" stroke-linejoin="round" opacity="1" vectornator:shadowRadius="10" d="M369.902+51L489.178+51C494.9+51+499.54+55.7226+499.54+61.5483L499.54+180.452C499.54+186.277+494.9+191+489.178+191L369.902+191C364.179+191+359.54+186.277+359.54+180.452L359.54+61.5483C359.54+55.7226+364.179+51+369.902+51Z" vectornator:shadowOpacity="0.333"/>
<g opacity="1">
<path vectornator:shadowColor="#000000" vectornator:shadowOpacity="0.333" vectornator:shadowRadius="10" d="M400.098+95.8644L408.985+95.8644L418.506+140.054L426.319+111.831L433.985+111.831L441.895+140.054L451.417+95.8644L460.303+95.8644L447.51+150.552L438.917+150.552L430.176+120.571L421.485+150.552L412.891+150.552L400.098+95.8644Z" vectornator:shadowOffset="10" fill="#000000" opacity="1" vectornator:shadowAngle="1.5708"/>
</g>
<path stroke="#000000" vectornator:shadowColor="#000000" vectornator:shadowOffset="10" stroke-width="10" fill="none" stroke-linecap="round" vectornator:shadowAngle="1.5708" stroke-linejoin="round" opacity="1" vectornator:shadowRadius="10" d="M452.013+211L571.289+211C577.012+211+581.651+215.723+581.651+221.548L581.651+340.452C581.651+346.277+577.012+351+571.289+351L452.013+351C446.29+351+441.651+346.277+441.651+340.452L441.651+221.548C441.651+215.723+446.29+211+452.013+211Z" vectornator:shadowOpacity="0.333"/>
<g opacity="1">
<path vectornator:shadowColor="#000000" vectornator:shadowOpacity="0.333" vectornator:shadowRadius="10" d="M536.897+278.716L536.897+283.11L497.981+283.11L497.981+283.403C497.721+290.858+499.145+296.213+502.254+299.468C505.362+302.723+509.749+304.351+515.413+304.351C518.277+304.351+521.272+303.895+524.397+302.984C527.522+302.072+530.859+300.689+534.407+298.833L534.407+307.769C530.989+309.168+527.693+310.218+524.519+310.918C521.345+311.618+518.277+311.968+515.315+311.968C506.819+311.968+500.178+309.421+495.393+304.326C490.608+299.232+488.215+292.209+488.215+283.257C488.215+274.533+490.559+267.567+495.247+262.359C499.934+257.15+506.184+254.546+513.997+254.546C520.963+254.546+526.456+256.906+530.476+261.626C534.496+266.346+536.637+272.043+536.897+278.716ZM527.913+276.079C527.522+272.303+526.147+269.04+523.787+266.289C521.427+263.539+518.033+262.163+513.606+262.163C509.277+262.163+505.712+263.596+502.913+266.46C500.113+269.325+498.583+272.547+498.323+276.128L527.913+276.079Z" vectornator:shadowOffset="10" fill="#000000" opacity="1" vectornator:shadowAngle="1.5708"/>
</g>
<path stroke="#000000" vectornator:shadowColor="#000000" vectornator:shadowOffset="10" stroke-width="10" fill="none" stroke-linecap="round" vectornator:shadowAngle="1.5708" stroke-linejoin="round" opacity="1" vectornator:shadowRadius="10" d="M303.219+371L714.408+371C734.137+371+750.13+375.723+750.13+381.548L750.13+500.452C750.13+506.277+734.137+511+714.408+511L303.219+511C283.491+511+267.497+506.277+267.497+500.452L267.497+381.548C267.497+375.723+283.491+371+303.219+371Z" vectornator:shadowOpacity="0.333"/>
<path stroke="#000000" vectornator:shadowColor="#000000" vectornator:shadowOffset="10" stroke-width="10" fill="none" stroke-linecap="round" vectornator:shadowAngle="1.5708" stroke-linejoin="round" opacity="1" vectornator:shadowRadius="10" d="M289.676+211L408.952+211C414.675+211+419.314+215.723+419.314+221.548L419.314+340.452C419.314+346.277+414.675+351+408.952+351L289.676+351C283.953+351+279.314+346.277+279.314+340.452L279.314+221.548C279.314+215.723+283.953+211+289.676+211Z" vectornator:shadowOpacity="0.333"/>
<g opacity="1">
<path vectornator:shadowColor="#000000" vectornator:shadowOpacity="0.333" vectornator:shadowRadius="10" d="M361.767+262.847L361.767+234.575L370.752+234.575L370.752+310.552L361.767+310.552L361.767+303.667C360.27+306.369+358.276+308.428+355.786+309.844C353.296+311.26+350.423+311.968+347.168+311.968C340.56+311.968+335.359+309.404+331.567+304.277C327.775+299.151+325.879+292.079+325.879+283.062C325.879+274.175+327.783+267.201+331.591+262.139C335.4+257.077+340.592+254.546+347.168+254.546C350.455+254.546+353.352+255.254+355.859+256.67C358.365+258.086+360.335+260.145+361.767+262.847ZM335.351+283.257C335.351+290.223+336.458+295.48+338.671+299.028C340.885+302.577+344.157+304.351+348.486+304.351C352.815+304.351+356.111+302.56+358.374+298.98C360.636+295.399+361.767+290.158+361.767+283.257C361.767+276.323+360.636+271.074+358.374+267.51C356.111+263.945+352.815+262.163+348.486+262.163C344.157+262.163+340.885+263.937+338.671+267.485C336.458+271.034+335.351+276.291+335.351+283.257Z" vectornator:shadowOffset="10" fill="#000000" opacity="1" vectornator:shadowAngle="1.5708"/>
</g>
<path stroke="#000000" vectornator:shadowColor="#000000" vectornator:shadowOffset="10" stroke-width="10" fill="none" stroke-linecap="round" vectornator:shadowAngle="1.5708" stroke-linejoin="round" opacity="1" vectornator:shadowRadius="10" d="M33.0108+211L240.329+211C250.276+211+258.339+215.723+258.339+221.548L258.339+340.452C258.339+346.277+250.276+351+240.329+351L33.0108+351C23.0637+351+15+346.277+15+340.452L15+221.548C15+215.723+23.0637+211+33.0108+211Z" vectornator:shadowOpacity="0.333"/>
<path stroke="#000000" vectornator:shadowColor="#000000" vectornator:shadowOffset="10" stroke-width="10" fill="none" stroke-linecap="round" vectornator:shadowAngle="1.5708" stroke-linejoin="round" opacity="1" vectornator:shadowRadius="10" d="M534.222+51L653.498+51C659.221+51+663.86+55.7226+663.86+61.5483L663.86+180.452C663.86+186.277+659.221+191+653.498+191L534.222+191C528.5+191+523.86+186.277+523.86+180.452L523.86+61.5483C523.86+55.7226+528.5+51+534.222+51Z" vectornator:shadowOpacity="0.333"/>
<g opacity="1">
<path vectornator:shadowColor="#000000" vectornator:shadowOpacity="0.333" vectornator:shadowRadius="10" d="M619.009+95.8644L599.429+122.036L620.913+150.552L610.513+150.552L594.497+128.628L578.53+150.552L568.13+150.552L589.614+122.036L570.034+95.8644L579.995+95.8644L594.497+115.64L608.901+95.8644L619.009+95.8644Z" vectornator:shadowOffset="10" fill="#000000" opacity="1" vectornator:shadowAngle="1.5708"/>
</g>
<path stroke="#000000" vectornator:shadowColor="#000000" vectornator:shadowOffset="10" stroke-width="10" fill="none" stroke-linecap="round" vectornator:shadowAngle="1.5708" stroke-linejoin="round" opacity="1" vectornator:shadowRadius="10" d="M615.668+211L734.944+211C740.666+211+745.306+215.723+745.306+221.548L745.306+340.452C745.306+346.277+740.666+351+734.944+351L615.668+351C609.945+351+605.306+346.277+605.306+340.452L605.306+221.548C605.306+215.723+609.945+211+615.668+211Z" vectornator:shadowOpacity="0.333"/>
<g opacity="1">
<path vectornator:shadowColor="#000000" vectornator:shadowOpacity="0.333" vectornator:shadowRadius="10" d="M650.747+255.864L660.073+255.864L675.942+301.763L691.86+255.864L701.187+255.864L681.753+310.552L670.181+310.552L650.747+255.864Z" vectornator:shadowOffset="10" fill="#000000" opacity="1" vectornator:shadowAngle="1.5708"/>
</g>
<path stroke="#000000" vectornator:shadowColor="#000000" vectornator:shadowOffset="10" stroke-width="10" fill="none" stroke-linecap="round" vectornator:shadowAngle="1.5708" stroke-linejoin="round" opacity="1" vectornator:shadowRadius="10" d="M782.545+211L991.182+211C1001.19+211+1009.31+215.723+1009.31+221.548L1009.31+340.452C1009.31+346.277+1001.19+351+991.182+351L782.545+351C772.534+351+764.419+346.277+764.419+340.452L764.419+221.548C764.419+215.723+772.534+211+782.545+211Z" vectornator:shadowOpacity="0.333"/>
<path stroke="#000000" vectornator:shadowColor="#000000" vectornator:shadowOffset="10" stroke-width="10" fill="none" stroke-linecap="round" vectornator:shadowAngle="1.5708" stroke-linejoin="round" opacity="1" vectornator:shadowRadius="10" d="M696.337+51L815.612+51C821.335+51+825.975+55.7226+825.975+61.5483L825.975+180.452C825.975+186.277+821.335+191+815.612+191L696.337+191C690.614+191+685.975+186.277+685.975+180.452L685.975+61.5483C685.975+55.7226+690.614+51+696.337+51Z" vectornator:shadowOpacity="0.333"/>
<g opacity="1">
<path vectornator:shadowColor="#000000" vectornator:shadowOpacity="0.333" vectornator:shadowRadius="10" d="M777.852+116.665L777.852+150.552L768.818+150.552L768.818+116.665C768.818+111.75+767.956+108.137+766.23+105.825C764.505+103.514+761.803+102.359+758.125+102.359C753.926+102.359+750.695+103.848+748.433+106.826C746.17+109.805+745.039+114.077+745.039+119.644L745.039+150.552L736.055+150.552L736.055+95.8644L745.039+95.8644L745.039+104.068C746.634+100.943+748.799+98.5744+751.533+96.963C754.268+95.3517+757.507+94.546+761.25+94.546C766.816+94.546+770.975+96.3771+773.726+100.039C776.476+103.701+777.852+109.243+777.852+116.665Z" vectornator:shadowOffset="10" fill="#000000" opacity="1" vectornator:shadowAngle="1.5708"/>
</g>
<path stroke="#000000" vectornator:shadowColor="#000000" vectornator:shadowOffset="10" stroke-width="10" fill="none" stroke-linecap="round" vectornator:shadowAngle="1.5708" stroke-linejoin="round" opacity="1" vectornator:shadowRadius="10" d="M860.931+51L997.246+51C1003.79+51+1009.09+55.7226+1009.09+61.5483L1009.09+180.452C1009.09+186.277+1003.79+191+997.246+191L860.931+191C854.391+191+849.089+186.277+849.089+180.452L849.089+61.5483C849.089+55.7226+854.391+51+860.931+51Z" vectornator:shadowOpacity="0.333"/>
</g>
</svg>
