<?xml version="1.0" encoding="UTF-8" standalone="no"?>
<!DOCTYPE svg PUBLIC "-//W3C//DTD SVG 1.1//EN" "http://www.w3.org/Graphics/SVG/1.1/DTD/svg11.dtd">
<!-- Created with Vectornator (http://vectornator.io/) -->
<svg height="100%" stroke-miterlimit="10" style="fill-rule:nonzero;clip-rule:evenodd;stroke-linecap:round;stroke-linejoin:round;" version="1.1" viewBox="0 0 1024 1024" width="100%" xml:space="preserve" xmlns="http://www.w3.org/2000/svg" xmlns:vectornator="http://vectornator.io" xmlns:xlink="http://www.w3.org/1999/xlink">
<defs>
<clipPath id="TextBounds">
<rect height="1.36047" width="0" x="113.615" y="393.491"/>
</clipPath>
</defs>
<g id="Layer-1" vectornator:layerName="Layer 1">
<path d="M530.292 184.985L617.945 184.985L617.945 756.241L903.043 756.59L903.174 829.85L530.292 829.645L530.292 184.985Z" fill="#0171b3" fill-rule="nonzero" opacity="1" stroke="none"/>
<path d="M426.891 678.148C443.556 682.569 456.311 690.42 465.154 701.701C473.997 712.981 478.418 727.068 478.418 743.96C478.418 767.315 470.567 785.653 454.865 798.974C439.163 812.295 417.424 818.956 389.648 818.956C377.97 818.956 366.066 817.879 353.936 815.725C341.805 813.571 329.901 810.453 318.223 806.372L318.223 772.19C329.787 778.199 341.181 782.677 352.405 785.625C363.629 788.572 374.796 790.046 385.906 790.046C404.726 790.046 419.181 785.795 429.271 777.292C439.361 768.789 444.407 756.545 444.407 740.559C444.407 725.821 439.361 714.115 429.271 705.442C419.181 696.769 405.52 692.433 388.287 692.433L362.098 692.433L362.098 664.203L388.287 664.203C404.046 664.203 416.347 660.745 425.19 653.829C434.033 646.914 438.454 637.277 438.454 624.919C438.454 611.882 434.345 601.877 426.125 594.904C417.906 587.932 406.2 584.446 391.008 584.446C380.918 584.446 370.488 585.579 359.718 587.847C348.947 590.114 337.667 593.515 325.876 598.05L325.876 566.419C339.594 562.792 351.81 560.071 362.523 558.257C373.237 556.443 382.732 555.536 391.008 555.536C415.723 555.536 435.478 561.743 450.274 574.157C465.069 586.571 472.466 603.039 472.466 623.559C472.466 637.504 468.583 649.124 460.817 658.421C453.051 667.717 441.742 674.293 426.891 678.148Z" fill="#0171b3" fill-rule="nonzero" opacity="1" stroke="none"/>
<path d="M902.32 468.344L902.32 499.975C895.178 495.78 887.582 492.577 879.533 490.366C871.483 488.155 863.094 487.05 854.364 487.05C832.596 487.05 816.101 495.241 804.877 511.624C793.653 528.006 788.041 552.126 788.041 583.983C793.483 572.646 801.022 563.945 810.659 557.879C820.296 551.814 831.349 548.781 843.82 548.781C868.309 548.781 887.27 556.292 900.705 571.314C914.139 586.336 920.857 607.621 920.857 635.171C920.857 662.607 913.941 683.864 900.11 698.943C886.278 714.021 866.835 721.56 841.78 721.56C812.303 721.56 790.705 710.989 776.987 689.845C763.269 668.701 756.41 635.398 756.41 589.935C756.41 547.081 764.658 514.401 781.154 491.897C797.649 469.392 821.543 458.14 852.833 458.14C861.223 458.14 869.612 459.019 878.002 460.776C886.392 462.533 894.498 465.056 902.32 468.344ZM841.099 575.65C826.474 575.65 814.967 580.922 806.578 591.466C798.188 602.01 793.993 616.578 793.993 635.171C793.993 653.764 798.188 668.332 806.578 678.876C814.967 689.419 826.474 694.691 841.099 694.691C856.291 694.691 867.742 689.675 875.451 679.641C883.16 669.608 887.015 654.784 887.015 635.171C887.015 615.444 883.16 600.592 875.451 590.616C867.742 580.639 856.291 575.65 841.099 575.65Z" fill="#0171b3" fill-rule="nonzero" opacity="1" stroke="none"/>
<path d="M693.796 680.115L693.775 684.167C693.738 691.297 694.961 696.673 697.444 700.295C699.927 703.917 703.649 705.742 708.609 705.767C713.082 705.791 716.565 704.458 719.059 701.77C721.553 699.081 722.813 695.346 722.838 690.563C722.873 683.831 720.564 678.527 715.912 674.65C711.26 670.773 704.816 668.79 696.579 668.703L693.856 668.689L693.796 680.115ZM688.871 656.373L731.319 656.595L731.255 668.884L720.227 668.827C724.642 671.463 727.891 674.768 729.974 678.742C732.057 682.717 733.084 687.538 733.054 693.207C733.015 700.78 730.846 706.814 726.549 711.308C722.252 715.803 716.516 718.032 709.342 717.994C701.061 717.951 694.787 715.139 690.52 709.559C686.253 703.979 684.148 695.808 684.204 685.047L684.29 668.639L682.363 668.629C676.429 668.642 672.114 670.126 669.42 673.079C666.725 676.032 665.36 680.763 665.327 687.273C665.305 691.436 665.881 695.646 667.054 699.904C668.228 704.162 669.955 708.311 672.237 712.353L660.014 712.29C658.311 707.764 657.038 703.428 656.196 699.283C655.354 695.137 654.943 691.116 654.964 687.219C654.996 681.064 655.931 675.809 657.77 671.457C659.608 667.104 662.35 663.587 665.996 660.904C668.219 659.233 670.959 658.051 674.218 657.36C677.477 656.668 682.361 656.339 688.871 656.373Z" fill="#0171b3" fill-rule="nonzero" opacity="1" stroke="none"/>
<path d="M685.642 574.98L731.743 575.221L731.679 587.51L685.578 587.269C678.891 587.234 673.969 588.382 670.813 590.713C667.656 593.044 666.065 596.711 666.039 601.715C666.009 607.428 668.012 611.834 672.048 614.933C676.084 618.032 681.889 619.601 689.461 619.641L731.51 619.86L731.447 632.083L657.047 631.695L657.111 619.472L668.271 619.53C664.031 617.338 660.824 614.376 658.652 610.645C656.479 606.913 655.406 602.501 655.432 597.408C655.472 589.836 657.993 584.191 662.994 580.475C667.996 576.759 675.545 574.927 685.642 574.98Z" fill="#0171b3" fill-rule="nonzero" opacity="1" stroke="none"/>
<path d="M667.204 505.797L628.742 505.596L628.806 493.373L732.168 493.912L732.104 506.135L722.738 506.086C726.403 508.143 729.19 510.87 731.098 514.268C733.007 517.666 733.95 521.579 733.927 526.007C733.88 534.997 730.355 542.054 723.354 547.177C716.352 552.299 706.717 554.829 694.45 554.765C682.36 554.702 672.886 552.061 666.026 546.844C659.167 541.627 655.761 534.545 655.807 525.6C655.831 521.127 656.814 517.19 658.759 513.79C660.703 510.391 663.518 507.726 667.204 505.797ZM694.783 541.879C704.26 541.929 711.42 540.46 716.263 537.474C721.106 534.488 723.543 530.05 723.573 524.16C723.604 518.27 721.192 513.773 716.336 510.67C711.481 507.567 704.359 505.99 694.971 505.941C685.538 505.892 678.389 507.394 673.523 510.446C668.658 513.499 666.21 517.97 666.179 523.86C666.149 529.75 668.539 534.213 673.35 537.25C678.162 540.287 685.306 541.83 694.783 541.879Z" fill="#0171b3" fill-rule="nonzero" opacity="1" stroke="none"/>
<path d="M689.311 406.599L695.29 406.63L695.013 459.574L695.412 459.576C705.551 459.983 712.846 458.083 717.297 453.877C721.748 449.671 723.993 443.715 724.033 436.01C724.054 432.112 723.455 428.035 722.237 423.777C721.019 419.519 719.161 414.97 716.662 410.13L728.818 410.193C730.698 414.853 732.103 419.345 733.033 423.667C733.962 427.99 734.416 432.167 734.395 436.197C734.335 447.755 730.823 456.771 723.858 463.245C716.893 469.719 707.322 472.924 695.143 472.86C683.275 472.798 673.814 469.56 666.762 463.146C659.71 456.732 656.211 448.211 656.267 437.582C656.316 428.105 659.566 420.649 666.016 415.213C672.466 409.777 680.231 406.906 689.311 406.599ZM685.66 418.803C680.52 419.308 676.071 421.156 672.312 424.347C668.553 427.538 666.658 432.145 666.627 438.168C666.596 444.058 668.519 448.917 672.396 452.746C676.274 456.575 680.647 458.679 685.517 459.059L685.66 418.803Z" fill="#0171b3" fill-rule="nonzero" opacity="1" stroke="none"/>
<path d="M674.007 322.286C671.957 324.888 670.459 327.538 669.515 330.234C668.571 332.931 668.09 335.896 668.074 339.128C668.034 346.745 670.395 352.582 675.157 356.636C679.918 360.691 686.816 362.742 695.851 362.79L732.851 362.983L732.787 375.272L658.387 374.884L658.452 362.594L672.999 362.67C667.74 360.606 663.715 357.451 660.925 353.207C658.135 348.964 656.755 343.941 656.786 338.139C656.801 335.128 657.192 332.318 657.959 329.709C658.725 327.1 659.912 324.604 661.519 322.221L674.007 322.286Z" fill="#0171b3" fill-rule="nonzero" opacity="1" stroke="none"/>
<path d="M661.617 252.404L673.575 252.466C671.519 255.954 669.973 259.467 668.936 263.004C667.899 266.542 667.371 270.148 667.352 273.824C667.323 279.36 668.198 283.494 669.977 286.227C671.757 288.96 674.484 290.336 678.16 290.355C681.481 290.372 683.966 289.367 685.616 287.338C687.265 285.31 688.886 280.247 690.478 272.151L691.434 267.24C692.617 261.179 694.943 256.597 698.414 253.493C701.885 250.388 706.388 248.851 711.923 248.88C719.275 248.918 725.007 251.561 729.121 256.808C733.234 262.055 735.266 269.329 735.218 278.629C735.199 282.305 734.791 286.156 733.995 290.181C733.199 294.207 732.014 298.563 730.439 303.25L717.818 303.184C720.189 298.635 721.972 294.282 723.167 290.125C724.363 285.968 724.97 282.03 724.989 278.31C725.017 272.907 723.943 268.716 721.767 265.738C719.59 262.759 716.531 261.26 712.59 261.239C706.921 261.21 702.973 266.614 700.747 277.453L700.611 277.983L699.657 282.562C698.248 289.596 695.907 294.721 692.635 297.937C689.363 301.153 684.915 302.746 679.291 302.717C672.161 302.68 666.671 300.237 662.821 295.39C658.972 290.543 657.07 283.646 657.117 274.701C657.138 270.715 657.523 266.886 658.273 263.214C659.023 259.542 660.138 255.939 661.617 252.404Z" fill="#0171b3" fill-rule="nonzero" opacity="1" stroke="none"/>
<path d="M252.415 763.808L252.509 767.859C252.674 774.987 254.049 780.326 256.633 783.877C259.218 787.427 262.99 789.145 267.949 789.031C272.42 788.928 275.865 787.497 278.282 784.739C280.699 781.981 281.852 778.211 281.741 773.429C281.586 766.7 279.128 761.463 274.368 757.719C269.608 753.975 263.11 752.176 254.874 752.322L252.152 752.385L252.415 763.808ZM246.82 740.216L289.257 739.235L289.541 751.521L278.517 751.776C283.005 754.286 286.346 757.498 288.54 761.412C290.735 765.326 291.898 770.116 292.029 775.783C292.204 783.354 290.207 789.447 286.039 794.062C281.871 798.676 276.201 801.066 269.028 801.232C260.749 801.423 254.398 798.791 249.975 793.333C245.552 787.876 243.216 779.768 242.967 769.01L242.588 752.606L240.662 752.651C234.731 752.832 230.46 754.437 227.85 757.465C225.24 760.493 224.01 765.262 224.16 771.77C224.256 775.932 224.951 780.124 226.245 784.347C227.539 788.569 229.383 792.668 231.778 796.644L219.559 796.927C217.728 792.451 216.333 788.153 215.374 784.033C214.415 779.913 213.89 775.905 213.8 772.009C213.658 765.855 214.444 760.577 216.158 756.174C217.873 751.771 220.514 748.177 224.082 745.392C226.257 743.659 228.963 742.4 232.201 741.617C235.439 740.833 240.312 740.366 246.82 740.216Z" fill="#0171b3" fill-rule="nonzero" opacity="1" stroke="none"/>
<path d="M260.533 715.38L214.443 716.445L214.161 704.225L260.25 703.16C266.936 703.006 271.823 701.708 274.911 699.267C278 696.825 279.487 693.125 279.373 688.167C279.24 682.411 277.112 678.052 272.991 675.091C268.869 672.13 263.023 670.737 255.452 670.912L213.413 671.883L213.13 659.597L287.377 657.881L287.661 670.167L276.504 670.425C280.849 672.495 284.171 675.375 286.471 679.065C288.772 682.755 289.979 687.102 290.095 692.105C290.271 699.72 287.912 705.445 283.017 709.279C278.122 713.113 270.627 715.147 260.533 715.38Z" fill="#0171b3" fill-rule="nonzero" opacity="1" stroke="none"/>
<path d="M259.098 598.666C264.588 598.539 268.704 597.436 271.447 595.357C274.19 593.279 275.516 590.269 275.425 586.328L275.095 572.05L285.389 571.812L285.746 587.286C285.915 594.591 283.71 600.301 279.132 604.416C274.553 608.531 267.97 610.687 259.38 610.886L192.106 612.44L192.559 632.032L182.995 632.253L182.26 600.442L259.098 598.666Z" fill="#0171b3" fill-rule="nonzero" opacity="1" stroke="none"/>
<g fill="#0171b3" opacity="1" stroke="none"/>
<path d="M147.761 247.627L147.761 489.861L248.8 489.861C289.1 489.861 320.549 479.21 343.146 457.908C365.743 436.607 377.041 406.813 377.041 368.528C377.041 330.243 365.815 300.521 343.362 279.364C320.909 258.206 289.388 247.627 248.8 247.627L147.761 247.627ZM60.54 175.95L248.8 175.95C320.765 175.95 375.314 192.286 412.448 224.958C449.582 257.63 468.149 305.487 468.149 368.528C468.149 432.145 449.654 480.217 412.664 512.746C375.674 545.274 321.053 561.538 248.8 561.538L147.761 561.538L147.761 820.611L60.54 820.611L60.54 175.95Z" fill="#0171b3" fill-rule="nonzero" opacity="1" stroke="none"/>
</g>
</svg>
