<?xml version="1.0" encoding="UTF-8" standalone="no"?> <!-- Created with Vectornator for iOS (http://vectornator.io/) --><!DOCTYPE svg PUBLIC "-//W3C//DTD SVG 1.1//EN" "http://www.w3.org/Graphics/SVG/1.1/DTD/svg11.dtd">
<svg height="100%" style="fill-rule:evenodd;clip-rule:evenodd;stroke-linecap:round;stroke-linejoin:round;" xmlns:xlink="http://www.w3.org/1999/xlink" xmlns="http://www.w3.org/2000/svg" xml:space="preserve" width="100%" xmlns:vectornator="http://vectornator.io" version="1.1" viewBox="0 0 560.619 446.268">
<metadata>
<vectornator:setting key="DimensionsVisible" value="1"/>
<vectornator:setting key="PencilOnly" value="0"/>
<vectornator:setting key="SnapToPoints" value="0"/>
<vectornator:setting key="OutlineMode" value="0"/>
<vectornator:setting key="CMYKEnabledKey" value="0"/>
<vectornator:setting key="RulersVisible" value="1"/>
<vectornator:setting key="SnapToEdges" value="0"/>
<vectornator:setting key="GuidesVisible" value="1"/>
<vectornator:setting key="DisplayWhiteBackground" value="0"/>
<vectornator:setting key="doHistoryDisabled" value="0"/>
<vectornator:setting key="SnapToGuides" value="1"/>
<vectornator:setting key="TimeLapseWatermarkDisabled" value="0"/>
<vectornator:setting key="Units" value="Pixels"/>
<vectornator:setting key="DynamicGuides" value="0"/>
<vectornator:setting key="IsolateActiveLayer" value="0"/>
<vectornator:setting key="SnapToGrid" value="0"/>
</metadata>
<defs/>
<g id="Layer 1" vectornator:layerName="Layer 1">
<path d="M70.4396+51.1657L70.4396+119.052L102.091+119.052C114.716+119.052+124.568+116.067+131.646+110.098C138.725+104.128+142.265+95.778+142.265+85.0485C142.265+74.3189+138.748+65.9894+131.714+60.0599C124.68+54.1304+114.806+51.1657+102.091+51.1657L70.4396+51.1657ZM43.1163+31.078L102.091+31.078C124.635+31.078+141.724+35.6562+153.356+44.8126C164.989+53.9691+170.805+67.381+170.805+85.0485C170.805+102.877+165.011+116.35+153.424+125.466C141.836+134.582+124.725+139.14+102.091+139.14L70.4396+139.14L70.8154+274.829L44.5652+275.015L43.1163+31.078Z" opacity="1" fill="#000000"/>
<path d="M120.364+390.036L120.364+314.085L93.2849+314.085C82.4841+314.085+74.0556+317.425+67.9995+324.104C61.9433+330.783+58.9153+340.124+58.9153+352.129C58.9153+364.133+61.9241+373.452+67.9416+380.086C73.9592+386.72+82.407+390.036+93.2849+390.036L120.364+390.036ZM143.74+412.51L93.2849+412.51C73.9978+412.51+59.3782+407.388+49.426+397.144C39.4739+386.9+34.4978+371.895+34.4978+352.129C34.4978+332.182+39.4546+317.109+49.3681+306.91C59.2817+296.711+73.9206+291.611+93.2849+291.611L120.364+291.611L119.824+160.611L142.987+160.689L143.74+412.51Z" opacity="1" fill="#000000"/>
<path d="M166.764+143.74L187.474+143.486L187.724+246.97L211.529+180.082L234.888+180.082L258.991+246.97L258.948+142.732L277.655+142.561L276.79+272.381L249.916+271.85L223.283+200.796L196.799+271.85L167.432+272.285L166.764+143.74Z" opacity="1" fill="#000000"/>
<path d="M412.409+142.157L366.004+204.185L416.922+271.767L392.273+271.767L354.316+219.807L316.475+271.767L291.826+271.767L342.744+204.185L296.339+142.157L319.946+142.157L354.316+189.025L388.454+142.157L412.409+142.157Z" opacity="1" fill="#000000"/>
<path d="M528.534+191.543L528.534+271.854L507.125+271.854L507.125+191.543C507.125+179.894+505.08+171.33+500.992+165.853C496.903+160.375+490.499+157.636+481.782+157.636C471.83+157.636+464.173+161.166+458.811+168.225C453.449+175.284+450.768+185.41+450.768+198.602L450.768+271.854L429.475+271.854L429.475+142.245L450.768+142.245L450.768+161.687C454.548+154.28+459.679+148.668+466.159+144.849C472.64+141.03+480.316+139.121+489.188+139.121C502.38+139.121+512.236+143.46+518.755+152.139C525.274+160.819+528.534+173.953+528.534+191.543Z" opacity="1" fill="#000000"/>
<path d="M278.092+336.423L278.092+346.838L185.861+346.838L185.861+347.532C185.244+365.199+188.619+377.89+195.987+385.605C203.354+393.32+213.75+397.177+227.174+397.177C233.963+397.177+241.061+396.097+248.467+393.937C255.873+391.777+263.781+388.498+272.19+384.101L272.19+405.278C264.089+408.595+256.278+411.083+248.756+412.742C241.234+414.401+233.963+415.23+226.942+415.23C206.807+415.23+191.068+409.193+179.728+397.119C168.387+385.046+162.716+368.401+162.716+347.185C162.716+326.509+168.271+310+179.38+297.656C190.49+285.312+205.302+279.14+223.818+279.14C240.328+279.14+253.346+284.733+262.874+295.92C272.402+307.107+277.475+320.608+278.092+336.423ZM256.799+330.174C255.873+321.225+252.613+313.491+247.02+306.972C241.427+300.452+233.384+297.193+222.892+297.193C212.631+297.193+204.184+300.587+197.549+307.377C190.914+314.166+187.288+321.803+186.671+330.29L256.799+330.174Z" opacity="1" fill="#000000"/>
<path d="M295.409+284.822L317.512+284.822L355.122+393.602L392.847+284.822L414.951+284.822L368.893+414.432L341.467+414.432L295.409+284.822Z" opacity="1" fill="#000000"/>
</g>
</svg>
