<?xml version="1.0" encoding="UTF-8" standalone="no"?>
<!DOCTYPE svg PUBLIC "-//W3C//DTD SVG 1.1//EN" "http://www.w3.org/Graphics/SVG/1.1/DTD/svg11.dtd">
<!-- Created with Vectornator (http://vectornator.io/) -->
<svg height="100%" stroke-miterlimit="10" style="fill-rule:nonzero;clip-rule:evenodd;stroke-linecap:round;stroke-linejoin:round;" version="1.1" viewBox="0 0 1024 1024" width="100%" xml:space="preserve" xmlns="http://www.w3.org/2000/svg" xmlns:vectornator="http://vectornator.io" xmlns:xlink="http://www.w3.org/1999/xlink">
<defs>
<clipPath id="TextBounds">
<rect height="1.36047" width="0" x="113.615" y="393.491"/>
</clipPath>
</defs>
<g id="Layer-1" vectornator:layerName="Layer 1">
<g opacity="1">
<path d="M530.292 184.985L617.945 184.985L617.945 756.241L762.506 758.82L763.364 827.926L530.292 829.645L530.292 184.985Z" fill="#0171b3" fill-rule="nonzero" opacity="1" stroke="none"/>
<path d="M440.891 671.148C457.556 675.569 470.311 683.42 479.154 694.701C487.997 705.981 492.418 720.068 492.418 736.96C492.418 760.315 484.567 778.653 468.865 791.974C453.163 805.295 431.424 811.956 403.648 811.956C391.97 811.956 380.066 810.879 367.936 808.725C355.805 806.571 343.901 803.453 332.223 799.372L332.223 765.19C343.787 771.199 355.181 775.677 366.405 778.625C377.629 781.572 388.796 783.046 399.906 783.046C418.726 783.046 433.181 778.795 443.271 770.292C453.361 761.789 458.407 749.545 458.407 733.559C458.407 718.821 453.361 707.115 443.271 698.442C433.181 689.769 419.52 685.433 402.287 685.433L376.098 685.433L376.098 657.203L402.287 657.203C418.046 657.203 430.347 653.745 439.19 646.829C448.033 639.914 452.454 630.277 452.454 617.919C452.454 604.882 448.345 594.877 440.125 587.904C431.906 580.932 420.2 577.446 405.008 577.446C394.918 577.446 384.488 578.579 373.718 580.847C362.947 583.114 351.667 586.515 339.876 591.05L339.876 559.419C353.594 555.792 365.81 553.071 376.523 551.257C387.237 549.443 396.732 548.536 405.008 548.536C429.723 548.536 449.478 554.743 464.274 567.157C479.069 579.571 486.466 596.039 486.466 616.559C486.466 630.504 482.583 642.124 474.817 651.421C467.051 660.717 455.742 667.293 440.891 671.148Z" fill="#0171b3" fill-rule="nonzero" opacity="1" stroke="none"/>
<path d="M942.004 563.956L942.004 595.587C934.861 591.393 927.265 588.19 919.216 585.979C911.166 583.768 902.777 582.663 894.047 582.663C872.28 582.663 855.784 590.854 844.56 607.236C833.336 623.619 827.725 647.739 827.725 679.596C833.166 668.259 840.706 659.558 850.342 653.492C859.979 647.427 871.033 644.394 883.504 644.394C907.992 644.394 926.954 651.905 940.388 666.927C953.823 681.949 960.54 703.234 960.54 730.784C960.54 758.22 953.624 779.477 939.793 794.556C925.962 809.634 906.518 817.173 881.463 817.173C851.986 817.173 830.389 806.601 816.671 785.457C802.953 764.314 796.094 731.01 796.094 685.548C796.094 642.693 804.342 610.014 820.837 587.51C837.333 565.005 861.226 553.753 892.517 553.753C900.906 553.753 909.296 554.632 917.685 556.389C926.075 558.146 934.181 560.669 942.004 563.956ZM880.783 671.263C866.158 671.263 854.65 676.535 846.261 687.079C837.871 697.622 833.677 712.191 833.677 730.784C833.677 749.377 837.871 763.945 846.261 774.489C854.65 785.032 866.158 790.304 880.783 790.304C895.975 790.304 907.425 785.287 915.134 775.254C922.844 765.22 926.698 750.397 926.698 730.784C926.698 711.057 922.844 696.205 915.134 686.228C907.425 676.252 895.975 671.263 880.783 671.263Z" fill="#0171b3" fill-rule="nonzero" opacity="1" stroke="none"/>
<path d="M693.796 680.115L693.775 684.167C693.738 691.297 694.961 696.673 697.444 700.295C699.927 703.917 703.649 705.742 708.609 705.767C713.082 705.791 716.565 704.458 719.059 701.77C721.553 699.081 722.813 695.346 722.838 690.563C722.873 683.831 720.564 678.527 715.912 674.65C711.26 670.773 704.816 668.79 696.579 668.703L693.856 668.689L693.796 680.115ZM688.871 656.373L731.319 656.595L731.255 668.884L720.227 668.827C724.642 671.463 727.891 674.768 729.974 678.742C732.057 682.717 733.084 687.538 733.054 693.207C733.015 700.78 730.846 706.814 726.549 711.308C722.252 715.803 716.516 718.032 709.342 717.994C701.061 717.951 694.787 715.139 690.52 709.559C686.253 703.979 684.148 695.808 684.204 685.047L684.29 668.639L682.363 668.629C676.429 668.642 672.114 670.126 669.42 673.079C666.725 676.032 665.36 680.763 665.327 687.273C665.305 691.436 665.881 695.646 667.054 699.904C668.228 704.162 669.955 708.311 672.237 712.353L660.014 712.29C658.311 707.764 657.038 703.428 656.196 699.283C655.354 695.137 654.943 691.116 654.964 687.219C654.996 681.064 655.931 675.809 657.77 671.457C659.608 667.104 662.35 663.587 665.996 660.904C668.219 659.233 670.959 658.051 674.218 657.36C677.477 656.668 682.361 656.339 688.871 656.373Z" fill="#0171b3" fill-rule="nonzero" opacity="1" stroke="none"/>
<path d="M685.642 574.98L731.743 575.221L731.679 587.51L685.578 587.269C678.891 587.234 673.969 588.382 670.813 590.713C667.656 593.044 666.065 596.711 666.039 601.715C666.009 607.428 668.012 611.834 672.048 614.933C676.084 618.032 681.889 619.601 689.461 619.641L731.51 619.86L731.447 632.083L657.047 631.695L657.111 619.472L668.271 619.53C664.031 617.338 660.824 614.376 658.652 610.645C656.479 606.913 655.406 602.501 655.432 597.408C655.472 589.836 657.993 584.191 662.994 580.475C667.996 576.759 675.545 574.927 685.642 574.98Z" fill="#0171b3" fill-rule="nonzero" opacity="1" stroke="none"/>
<path d="M667.204 505.797L628.742 505.596L628.806 493.373L732.168 493.912L732.104 506.135L722.738 506.086C726.403 508.143 729.19 510.87 731.098 514.268C733.007 517.666 733.95 521.579 733.927 526.007C733.88 534.997 730.355 542.054 723.354 547.177C716.352 552.299 706.717 554.829 694.45 554.765C682.36 554.702 672.886 552.061 666.026 546.844C659.167 541.627 655.761 534.545 655.807 525.6C655.831 521.127 656.814 517.19 658.759 513.79C660.703 510.391 663.518 507.726 667.204 505.797ZM694.783 541.879C704.26 541.929 711.42 540.46 716.263 537.474C721.106 534.488 723.543 530.05 723.573 524.16C723.604 518.27 721.192 513.773 716.336 510.67C711.481 507.567 704.359 505.99 694.971 505.941C685.538 505.892 678.389 507.394 673.523 510.446C668.658 513.499 666.21 517.97 666.179 523.86C666.149 529.75 668.539 534.213 673.35 537.25C678.162 540.287 685.306 541.83 694.783 541.879Z" fill="#0171b3" fill-rule="nonzero" opacity="1" stroke="none"/>
<path d="M689.311 406.599L695.29 406.63L695.013 459.574L695.412 459.576C705.551 459.983 712.846 458.083 717.297 453.877C721.748 449.671 723.993 443.715 724.033 436.01C724.054 432.112 723.455 428.035 722.237 423.777C721.019 419.519 719.161 414.97 716.662 410.13L728.818 410.193C730.698 414.853 732.103 419.345 733.033 423.667C733.962 427.99 734.416 432.167 734.395 436.197C734.335 447.755 730.823 456.771 723.858 463.245C716.893 469.719 707.322 472.924 695.143 472.86C683.275 472.798 673.814 469.56 666.762 463.146C659.71 456.732 656.211 448.211 656.267 437.582C656.316 428.105 659.566 420.649 666.016 415.213C672.466 409.777 680.231 406.906 689.311 406.599ZM685.66 418.803C680.52 419.308 676.071 421.156 672.312 424.347C668.553 427.538 666.658 432.145 666.627 438.168C666.596 444.058 668.519 448.917 672.396 452.746C676.274 456.575 680.647 458.679 685.517 459.059L685.66 418.803Z" fill="#0171b3" fill-rule="nonzero" opacity="1" stroke="none"/>
<path d="M674.007 322.286C671.957 324.888 670.459 327.538 669.515 330.234C668.571 332.931 668.09 335.896 668.074 339.128C668.034 346.745 670.395 352.582 675.157 356.636C679.918 360.691 686.816 362.742 695.851 362.79L732.851 362.983L732.787 375.272L658.387 374.884L658.452 362.594L672.999 362.67C667.74 360.606 663.715 357.451 660.925 353.207C658.135 348.964 656.755 343.941 656.786 338.139C656.801 335.128 657.192 332.318 657.959 329.709C658.725 327.1 659.912 324.604 661.519 322.221L674.007 322.286Z" fill="#0171b3" fill-rule="nonzero" opacity="1" stroke="none"/>
<path d="M661.617 252.404L673.575 252.466C671.519 255.954 669.973 259.467 668.936 263.004C667.899 266.542 667.371 270.148 667.352 273.824C667.323 279.36 668.198 283.494 669.977 286.227C671.757 288.96 674.484 290.336 678.16 290.355C681.481 290.372 683.966 289.367 685.616 287.338C687.265 285.31 688.886 280.247 690.478 272.151L691.434 267.24C692.617 261.179 694.943 256.597 698.414 253.493C701.885 250.388 706.388 248.851 711.923 248.88C719.275 248.918 725.007 251.561 729.121 256.808C733.234 262.055 735.266 269.329 735.218 278.629C735.199 282.305 734.791 286.156 733.995 290.181C733.199 294.207 732.014 298.563 730.439 303.25L717.818 303.184C720.189 298.635 721.972 294.282 723.167 290.125C724.363 285.968 724.97 282.03 724.989 278.31C725.017 272.907 723.943 268.716 721.767 265.738C719.59 262.759 716.531 261.26 712.59 261.239C706.921 261.21 702.973 266.614 700.747 277.453L700.611 277.983L699.657 282.562C698.248 289.596 695.907 294.721 692.635 297.937C689.363 301.153 684.915 302.746 679.291 302.717C672.161 302.68 666.671 300.237 662.821 295.39C658.972 290.543 657.07 283.646 657.117 274.701C657.138 270.715 657.523 266.886 658.273 263.214C659.023 259.542 660.138 255.939 661.617 252.404Z" fill="#0171b3" fill-rule="nonzero" opacity="1" stroke="none"/>
<path d="M221.415 763.808L221.509 767.859C221.674 774.987 223.049 780.326 225.633 783.877C228.218 787.427 231.99 789.145 236.949 789.031C241.42 788.928 244.865 787.497 247.282 784.739C249.699 781.981 250.852 778.211 250.741 773.429C250.586 766.7 248.128 761.463 243.368 757.719C238.608 753.975 232.11 752.176 223.874 752.322L221.152 752.385L221.415 763.808ZM215.82 740.216L258.257 739.235L258.541 751.521L247.517 751.776C252.005 754.286 255.346 757.498 257.54 761.412C259.735 765.326 260.898 770.116 261.029 775.783C261.204 783.354 259.207 789.447 255.039 794.062C250.871 798.676 245.201 801.066 238.028 801.232C229.749 801.423 223.398 798.791 218.975 793.333C214.552 787.876 212.216 779.768 211.967 769.01L211.588 752.606L209.662 752.651C203.731 752.832 199.46 754.437 196.85 757.465C194.24 760.493 193.01 765.262 193.16 771.77C193.256 775.932 193.951 780.124 195.245 784.347C196.539 788.569 198.383 792.668 200.778 796.644L188.559 796.927C186.728 792.451 185.333 788.153 184.374 784.033C183.415 779.913 182.89 775.905 182.8 772.009C182.658 765.855 183.444 760.577 185.158 756.174C186.873 751.771 189.514 748.177 193.082 745.392C195.257 743.659 197.963 742.4 201.201 741.617C204.439 740.833 209.312 740.366 215.82 740.216Z" fill="#0171b3" fill-rule="nonzero" opacity="1" stroke="none"/>
<path d="M229.533 715.38L183.443 716.445L183.161 704.225L229.25 703.16C235.936 703.006 240.823 701.708 243.911 699.267C247 696.825 248.487 693.125 248.373 688.167C248.24 682.411 246.112 678.052 241.991 675.091C237.869 672.13 232.023 670.737 224.452 670.912L182.413 671.883L182.13 659.597L256.377 657.881L256.661 670.167L245.504 670.425C249.849 672.495 253.171 675.375 255.471 679.065C257.772 682.755 258.979 687.102 259.095 692.105C259.271 699.72 256.912 705.445 252.017 709.279C247.122 713.113 239.627 715.147 229.533 715.38Z" fill="#0171b3" fill-rule="nonzero" opacity="1" stroke="none"/>
<path d="M228.098 598.666C233.588 598.539 237.704 597.436 240.447 595.357C243.19 593.279 244.516 590.269 244.425 586.328L244.095 572.05L254.389 571.812L254.746 587.286C254.915 594.591 252.71 600.301 248.132 604.416C243.553 608.531 236.97 610.687 228.38 610.886L161.106 612.44L161.559 632.032L151.995 632.253L151.26 600.442L228.098 598.666Z" fill="#0171b3" fill-rule="nonzero" opacity="1" stroke="none"/>
<g fill="#0171b3" opacity="1" stroke="none"/>
<path d="M147.761 247.627L147.761 489.861L248.8 489.861C289.1 489.861 320.549 479.21 343.146 457.908C365.743 436.607 377.041 406.813 377.041 368.528C377.041 330.243 365.815 300.521 343.362 279.364C320.909 258.206 289.388 247.627 248.8 247.627L147.761 247.627ZM60.54 175.95L248.8 175.95C320.765 175.95 375.314 192.286 412.448 224.958C449.582 257.63 468.149 305.487 468.149 368.528C468.149 432.145 449.654 480.217 412.664 512.746C375.674 545.274 321.053 561.538 248.8 561.538L147.761 561.538L147.761 820.611L60.54 820.611L60.54 175.95Z" fill="#0171b3" fill-rule="nonzero" opacity="1" stroke="none"/>
</g>
</g>
</svg>
